#N canvas 617 110 450 300 10;
#X declare -lib mrpeach;
#X obj 315 27 import mrpeach;
#X obj 52 124 unpackOSC;
#X obj 52 75 udpreceive 13000;
#X obj 52 230 print match:;
#X obj 145 231 print no match:;
#X obj 52 173 routeOSC /random;
#X text 51 27 Random OSC Receiver;
#X connect 1 0 5 0;
#X connect 2 0 1 0;
#X connect 5 0 3 0;
#X connect 5 1 4 0;
