#N canvas 440 77 493 550 10;
#X declare -lib mrpeach;
#X obj 340 83 import mrpeach;
#X obj 216 449 udpsend;
#X obj 216 380 packOSC;
#X obj 216 216 random 255;
#X obj 216 155 bng 15 250 50 0 empty empty empty 17 7 0 10 -262144
-1 -1;
#X floatatom 216 266 5 0 0 0 - - -;
#X msg 216 316 send /random \$1;
#X obj 41 515 tgl 15 0 empty empty empty 17 7 0 10 -262144 -1 -1 1
1;
#X text 62 513 CONNECTED;
#X msg 49 373 disconnect;
#X text 40 30 RANDOM OSC SENDER;
#X msg 42 85 connect localhost 13000;
#X text 224 193 create a random number between 0 and 255;
#X text 226 296 create the OSC message;
#X text 227 358 create an OSC package;
#X text 226 427 send the message via UDP;
#X text 38 65 connect to remote machine and port;
#X connect 1 0 7 0;
#X connect 2 0 1 0;
#X connect 3 0 5 0;
#X connect 4 0 3 0;
#X connect 5 0 6 0;
#X connect 6 0 2 0;
#X connect 9 0 1 0;
#X connect 11 0 1 0;
